<svg width="252" height="78" xmlns="http://www.w3.org/2000/svg">
 <!-- Created with Method Draw - http://github.com/duopixel/Method-Draw/ -->

 <g>
  <title>background</title>
  <rect x="-1" y="-1" width="254" height="80" id="canvas_background" fill="#ffffff"/>
  <g id="canvasGrid" display="none">
   <rect id="svg_2" width="640" height="480" x="74.750023" y="1" stroke-width="0" fill="url(#gridpattern)"/>
  </g>
 </g>
 <g>
  <title>Layer 1</title>
  <rect stroke="#DECBB7" fill="#DECBB7" stroke-width="1.5" x="-44.250025" y="-1.749967" width="300" height="53.499967" id="svg_1"/>
  <path stroke="#DECBB7" transform="rotate(180 126,63.25007629394531) " id="svg_4" d="m107.499964,75.750146l18.500038,-25.00014l18.500038,25.00014l-37.000076,0z" stroke-width="1.5" fill="#DECBB7"/>
  <g stroke="null" id="svg_11">
   <path stroke="null" id="svg_9" fill="none" d="m106.999999,5l38,0l0,40l-38,0l0,-40z"/>
   <path stroke="null" id="svg_10" d="m134.249166,19.710257l-6.935,-10.933333c-0.300833,-0.466667 -0.8075,-0.7 -1.314167,-0.7c-0.506667,0 -1.013333,0.233333 -1.314167,0.716667l-6.935,10.916667l-7.584167,0c-0.870833,0 -1.583333,0.75 -1.583333,1.666667c0,0.15 0.015833,0.3 0.063333,0.45l4.021667,15.45c0.364167,1.4 1.583333,2.433333 3.04,2.433333l20.583334,0c1.456667,0 2.675833,-1.033333 3.055833,-2.433333l4.021667,-15.45l0.0475,-0.45c0,-0.916667 -0.7125,-1.666667 -1.583333,-1.666667l-7.584167,0zm-12.999167,0l4.75,-7.333333l4.75,7.333333l-9.5,0zm4.75,13.333333c-1.741667,0 -3.166667,-1.5 -3.166667,-3.333333s1.425,-3.333333 3.166667,-3.333333s3.166667,1.5 3.166667,3.333333s-1.425,3.333333 -3.166667,3.333333z"/>
  </g>
 </g>
</svg>